name rise36.2859peak64.2979fall75.1499.mot
datacolumns 19
datarows 33
range 17.31326500000000 17.36659700000000
endheader
time	ground_force1_vx	ground_force1_vy	ground_force1_vz	ground_force1_px	ground_force1_py	ground_force1_pz	ground_force2_vx	ground_force2_vy	ground_force2_vz	ground_force2_px	ground_force2_py	ground_force2_pz	ground_torque1_x	ground_torque1_y	ground_torque1_z	ground_torque2_x	ground_torque2_y	ground_torque2_z	
17.31326500000000	8.52910400000000	691.55432299999995	42.31921200000000	0.31921800000000	0.00000000000000	0.10800300000000	0.00000000000000	0.00000000000000	0.00000000000000	0.00000000000000	0.00000000000000	0.00000000000000	0.00000000000000	25.18230800000000	0.00000000000000	0.00000000000000	0.00000000000000	0.00000000000000	
17.31493400000000	8.10401300000000	692.17880200000002	42.37117300000000	0.31776400000000	0.00000000000000	0.10805500000000	0.00000000000000	0.00000000000000	0.00000000000000	0.00000000000000	0.00000000000000	0.00000000000000	0.00000000000000	25.24924500000000	0.00000000000000	0.00000000000000	0.00000000000000	0.00000000000000	
17.31659800000000	7.67318000000000	692.84777999999994	42.42764500000000	0.31632600000000	0.00000000000000	0.10810600000000	0.00000000000000	0.00000000000000	0.00000000000000	0.00000000000000	0.00000000000000	0.00000000000000	0.00000000000000	25.32167700000000	0.00000000000000	0.00000000000000	0.00000000000000	0.00000000000000	
17.31826800000000	7.23638700000000	693.56010700000002	42.48828300000000	0.31490300000000	0.00000000000000	0.10815500000000	0.00000000000000	0.00000000000000	0.00000000000000	0.00000000000000	0.00000000000000	0.00000000000000	0.00000000000000	25.39943100000000	0.00000000000000	0.00000000000000	0.00000000000000	0.00000000000000	
17.31993600000000	6.79342900000000	694.31469800000002	42.55275200000000	0.31349900000000	0.00000000000000	0.10820200000000	0.00000000000000	0.00000000000000	0.00000000000000	0.00000000000000	0.00000000000000	0.00000000000000	0.00000000000000	25.48233500000000	0.00000000000000	0.00000000000000	0.00000000000000	0.00000000000000	
17.32160100000000	6.34411100000000	695.11053900000002	42.62072800000000	0.31211200000000	0.00000000000000	0.10824800000000	0.00000000000000	0.00000000000000	0.00000000000000	0.00000000000000	0.00000000000000	0.00000000000000	0.00000000000000	25.57021800000000	0.00000000000000	0.00000000000000	0.00000000000000	0.00000000000000	
17.32326400000000	5.88825200000000	695.94668700000000	42.69190000000000	0.31074600000000	0.00000000000000	0.10829100000000	0.00000000000000	0.00000000000000	0.00000000000000	0.00000000000000	0.00000000000000	0.00000000000000	0.00000000000000	25.66291200000000	0.00000000000000	0.00000000000000	0.00000000000000	0.00000000000000	
17.32493900000000	5.42568300000000	696.82227499999999	42.76597100000000	0.30940100000000	0.00000000000000	0.10833300000000	0.00000000000000	0.00000000000000	0.00000000000000	0.00000000000000	0.00000000000000	0.00000000000000	0.00000000000000	25.76024900000000	0.00000000000000	0.00000000000000	0.00000000000000	0.00000000000000	
17.32660200000000	4.95624500000000	697.73651099999995	42.84265700000000	0.30807900000000	0.00000000000000	0.10837200000000	0.00000000000000	0.00000000000000	0.00000000000000	0.00000000000000	0.00000000000000	0.00000000000000	0.00000000000000	25.86206400000000	0.00000000000000	0.00000000000000	0.00000000000000	0.00000000000000	
17.32827200000000	4.47979400000000	698.68867799999998	42.92169300000000	0.30677900000000	0.00000000000000	0.10840900000000	0.00000000000000	0.00000000000000	0.00000000000000	0.00000000000000	0.00000000000000	0.00000000000000	0.00000000000000	25.96819600000000	0.00000000000000	0.00000000000000	0.00000000000000	0.00000000000000	
17.32993900000000	3.99619800000000	699.67813699999999	43.00283000000000	0.30550300000000	0.00000000000000	0.10844400000000	0.00000000000000	0.00000000000000	0.00000000000000	0.00000000000000	0.00000000000000	0.00000000000000	0.00000000000000	26.07848600000000	0.00000000000000	0.00000000000000	0.00000000000000	0.00000000000000	
17.33160500000000	3.50533600000000	700.70432200000005	43.08583700000000	0.30425100000000	0.00000000000000	0.10847600000000	0.00000000000000	0.00000000000000	0.00000000000000	0.00000000000000	0.00000000000000	0.00000000000000	0.00000000000000	26.19278000000000	0.00000000000000	0.00000000000000	0.00000000000000	0.00000000000000	
17.33326700000000	3.00710000000000	701.76674000000003	43.17050300000000	0.30302500000000	0.00000000000000	0.10850600000000	0.00000000000000	0.00000000000000	0.00000000000000	0.00000000000000	0.00000000000000	0.00000000000000	0.00000000000000	26.31092700000000	0.00000000000000	0.00000000000000	0.00000000000000	0.00000000000000	
17.33493200000000	2.50139800000000	702.86496999999997	43.25663600000000	0.30182500000000	0.00000000000000	0.10853300000000	0.00000000000000	0.00000000000000	0.00000000000000	0.00000000000000	0.00000000000000	0.00000000000000	0.00000000000000	26.43278100000000	0.00000000000000	0.00000000000000	0.00000000000000	0.00000000000000	
17.33659800000000	1.98814500000000	703.99865999999997	43.34406500000000	0.30065100000000	0.00000000000000	0.10855800000000	0.00000000000000	0.00000000000000	0.00000000000000	0.00000000000000	0.00000000000000	0.00000000000000	0.00000000000000	26.55820000000000	0.00000000000000	0.00000000000000	0.00000000000000	0.00000000000000	
17.33826300000000	1.46727500000000	705.16751999999997	43.43264200000000	0.29950300000000	0.00000000000000	0.10857900000000	0.00000000000000	0.00000000000000	0.00000000000000	0.00000000000000	0.00000000000000	0.00000000000000	0.00000000000000	26.68704700000000	0.00000000000000	0.00000000000000	0.00000000000000	0.00000000000000	
17.33993600000000	0.93873100000000	706.37132399999996	43.52223900000000	0.29838200000000	0.00000000000000	0.10859800000000	0.00000000000000	0.00000000000000	0.00000000000000	0.00000000000000	0.00000000000000	0.00000000000000	0.00000000000000	26.81919000000000	0.00000000000000	0.00000000000000	0.00000000000000	0.00000000000000	
17.34160100000000	0.40247000000000	707.60989800000004	43.61275100000000	0.29728800000000	0.00000000000000	0.10861400000000	0.00000000000000	0.00000000000000	0.00000000000000	0.00000000000000	0.00000000000000	0.00000000000000	0.00000000000000	26.95450000000000	0.00000000000000	0.00000000000000	0.00000000000000	0.00000000000000	
17.34326400000000	-0.14153600000000	708.88312299999996	43.70409500000000	0.29622100000000	0.00000000000000	0.10862800000000	0.00000000000000	0.00000000000000	0.00000000000000	0.00000000000000	0.00000000000000	0.00000000000000	0.00000000000000	27.09285500000000	0.00000000000000	0.00000000000000	0.00000000000000	0.00000000000000	
17.34493600000000	-0.69330200000000	710.19092200000000	43.79621100000000	0.29518200000000	0.00000000000000	0.10863800000000	0.00000000000000	0.00000000000000	0.00000000000000	0.00000000000000	0.00000000000000	0.00000000000000	0.00000000000000	27.23413700000000	0.00000000000000	0.00000000000000	0.00000000000000	0.00000000000000	
17.34660100000000	-1.25283100000000	711.53325900000004	43.88906100000000	0.29416800000000	0.00000000000000	0.10864600000000	0.00000000000000	0.00000000000000	0.00000000000000	0.00000000000000	0.00000000000000	0.00000000000000	0.00000000000000	27.37823300000000	0.00000000000000	0.00000000000000	0.00000000000000	0.00000000000000	
17.34826600000000	-1.82010900000000	712.91013099999998	43.98263100000000	0.29318200000000	0.00000000000000	0.10865100000000	0.00000000000000	0.00000000000000	0.00000000000000	0.00000000000000	0.00000000000000	0.00000000000000	0.00000000000000	27.52503200000000	0.00000000000000	0.00000000000000	0.00000000000000	0.00000000000000	
17.34993200000000	-2.39511100000000	714.32155799999998	44.07692800000000	0.29222100000000	0.00000000000000	0.10865300000000	0.00000000000000	0.00000000000000	0.00000000000000	0.00000000000000	0.00000000000000	0.00000000000000	0.00000000000000	27.67443100000000	0.00000000000000	0.00000000000000	0.00000000000000	0.00000000000000	
17.35160300000000	-2.97779400000000	715.76758199999995	44.17198200000000	0.29128700000000	0.00000000000000	0.10865300000000	0.00000000000000	0.00000000000000	0.00000000000000	0.00000000000000	0.00000000000000	0.00000000000000	0.00000000000000	27.82632800000000	0.00000000000000	0.00000000000000	0.00000000000000	0.00000000000000	
17.35327100000000	-3.56810400000000	717.24825499999997	44.26784400000000	0.29037800000000	0.00000000000000	0.10865000000000	0.00000000000000	0.00000000000000	0.00000000000000	0.00000000000000	0.00000000000000	0.00000000000000	0.00000000000000	27.98062800000000	0.00000000000000	0.00000000000000	0.00000000000000	0.00000000000000	
17.35493200000000	-4.16596900000000	718.76363100000003	44.36458600000000	0.28949300000000	0.00000000000000	0.10864400000000	0.00000000000000	0.00000000000000	0.00000000000000	0.00000000000000	0.00000000000000	0.00000000000000	0.00000000000000	28.13723700000000	0.00000000000000	0.00000000000000	0.00000000000000	0.00000000000000	
17.35660500000000	-4.77130300000000	720.31376200000000	44.46230100000000	0.28863300000000	0.00000000000000	0.10863500000000	0.00000000000000	0.00000000000000	0.00000000000000	0.00000000000000	0.00000000000000	0.00000000000000	0.00000000000000	28.29606600000000	0.00000000000000	0.00000000000000	0.00000000000000	0.00000000000000	
17.35827000000000	-5.38400500000000	721.89868600000000	44.56110200000000	0.28779500000000	0.00000000000000	0.10862500000000	0.00000000000000	0.00000000000000	0.00000000000000	0.00000000000000	0.00000000000000	0.00000000000000	0.00000000000000	28.45702900000000	0.00000000000000	0.00000000000000	0.00000000000000	0.00000000000000	
17.35993100000000	-6.00395700000000	723.51842099999999	44.66111900000000	0.28698100000000	0.00000000000000	0.10861100000000	0.00000000000000	0.00000000000000	0.00000000000000	0.00000000000000	0.00000000000000	0.00000000000000	0.00000000000000	28.62004000000000	0.00000000000000	0.00000000000000	0.00000000000000	0.00000000000000	
17.36160200000000	-6.63102500000000	725.17295600000000	44.76250100000000	0.28618800000000	0.00000000000000	0.10859600000000	0.00000000000000	0.00000000000000	0.00000000000000	0.00000000000000	0.00000000000000	0.00000000000000	0.00000000000000	28.78502000000000	0.00000000000000	0.00000000000000	0.00000000000000	0.00000000000000	
17.36326500000000	-7.26506100000000	726.86224300000003	44.86541300000000	0.28541500000000	0.00000000000000	0.10857800000000	0.00000000000000	0.00000000000000	0.00000000000000	0.00000000000000	0.00000000000000	0.00000000000000	0.00000000000000	28.95188900000000	0.00000000000000	0.00000000000000	0.00000000000000	0.00000000000000	
17.36493500000000	-7.90589600000000	728.58618899999999	44.97003600000000	0.28466200000000	0.00000000000000	0.10855800000000	0.00000000000000	0.00000000000000	0.00000000000000	0.00000000000000	0.00000000000000	0.00000000000000	0.00000000000000	29.12056900000000	0.00000000000000	0.00000000000000	0.00000000000000	0.00000000000000	
17.36659700000000	-8.55335000000000	730.34464900000000	45.07656400000000	0.28392800000000	0.00000000000000	0.10853500000000	0.00000000000000	0.00000000000000	0.00000000000000	0.00000000000000	0.00000000000000	0.00000000000000	0.00000000000000	29.29098400000000	0.00000000000000	0.00000000000000	0.00000000000000	0.00000000000000	
